<?xml version="1.0" standalone="no"?>
<!DOCTYPE svg PUBLIC "-//W3C//DTD SVG 20010904//EN" "http://www.w3.org/TR/2001/REC-SVG-20010904/DTD/svg10.dtd">
<svg version="1.0" xmlns="http://www.w3.org/2000/svg"
  width="1374.000000pt" height="943.000000pt" viewBox="0 0 1374.000000 943.000000"
  preserveAspectRatio="xMidYMid meet">

  <g transform="translate(0.000000,943.000000) scale(0.100000,-0.100000)"
    fill="#fff" stroke="none">
    <path
      d="M580 9413 c-36 -13 -40 -33 -40 -230 l0 -193 -113 0 c-86 0 -118 -4
-135 -16 l-22 -15 0 -979 0 -978 -110 -4 c-89 -2 -113 -6 -127 -21 -17 -17
-18 -118 -18 -2168 0 -2117 0 -2151 19 -2165 41 -29 96 -4 96 43 0 43 72 72
99 39 7 -8 15 -31 18 -53 9 -57 29 -75 75 -68 28 5 46 2 64 -10 27 -18 27 -16
9 -110 -8 -42 15 -69 57 -66 66 5 80 3 104 -20 13 -12 29 -40 35 -61 13 -48
49 -67 85 -43 17 11 26 31 35 76 14 70 44 120 80 133 21 7 32 4 57 -14 27 -20
35 -22 56 -12 14 6 32 25 41 41 29 57 78 66 137 24 33 -22 42 -24 63 -15 13 6
31 25 40 42 26 50 63 42 141 -31 98 -91 126 -75 167 91 28 113 51 163 85 190
36 29 64 25 102 -15 49 -50 93 -49 155 5 25 22 48 40 51 40 17 0 45 -24 63
-55 23 -39 60 -47 95 -20 30 22 54 18 87 -14 24 -25 29 -38 29 -78 0 -26 -7
-72 -15 -102 -17 -65 -10 -81 45 -116 52 -33 70 -70 70 -144 0 -96 40 -118
108 -56 21 19 59 40 84 46 44 12 50 11 110 -19 40 -21 71 -30 85 -26 22 6 43
49 43 86 0 27 29 67 61 84 36 18 82 18 120 -2 47 -24 71 -15 95 35 27 56 57
81 97 81 26 0 44 -13 102 -73 80 -81 115 -144 115 -204 0 -24 7 -48 16 -57 20
-20 58 -20 75 0 32 39 100 55 141 33 24 -13 48 -67 48 -108 0 -33 22 -51 64
-51 21 0 31 10 50 48 36 71 112 168 151 192 31 19 40 20 137 11 127 -12 140
-17 171 -61 l24 -35 -47 -95 c-91 -183 -152 -385 -171 -567 -12 -107 -19 -128
-35 -102 -22 37 -146 61 -222 44 -28 -6 -30 -4 -41 41 -25 97 -75 164 -156
208 -33 17 -57 21 -142 21 l-101 0 -22 32 c-48 69 -158 119 -242 108 -52 -6
-98 -24 -143 -55 -16 -11 -40 -20 -51 -20 -33 0 -47 -25 -41 -71 12 -92 67
-103 137 -30 52 54 92 68 157 56 45 -8 108 -69 118 -114 12 -56 47 -63 144
-26 83 30 167 -4 209 -85 21 -40 23 -54 17 -118 -4 -50 -2 -78 6 -88 16 -20
59 -17 113 6 70 32 134 36 174 11 17 -12 32 -29 32 -39 0 -34 29 -62 65 -62
32 0 35 -3 46 -42 46 -173 186 -356 359 -469 41 -27 84 -55 95 -63 18 -13 -54
-15 -622 -16 -354 0 -643 1 -643 3 0 1 7 24 15 51 50 165 -39 333 -200 377
-32 9 -34 12 -28 37 14 50 7 135 -15 178 -25 50 -101 119 -146 134 -31 10 -34
15 -39 62 -9 74 -50 152 -95 180 -29 18 -52 23 -109 23 l-73 1 -29 40 c-57 77
-177 119 -268 95 -51 -14 -121 -65 -148 -109 -16 -26 -25 -31 -45 -27 -112 24
-162 13 -230 -51 -26 -25 -53 -58 -60 -74 -7 -17 -14 -30 -15 -30 -1 0 -24 10
-51 22 -69 31 -200 32 -265 2 -123 -57 -215 -209 -148 -244 37 -20 62 -7 100
50 83 126 214 139 332 33 31 -28 44 -33 65 -28 28 7 51 31 52 55 1 30 48 117
75 138 29 23 83 29 115 12 10 -5 23 -23 28 -39 12 -35 51 -49 86 -33 18 8 25
22 30 64 8 63 39 112 83 133 91 44 191 -18 210 -128 3 -21 12 -45 20 -53 28
-28 93 -9 93 27 0 28 43 46 76 31 32 -15 53 -66 61 -148 3 -35 11 -71 17 -80
6 -8 32 -20 56 -25 61 -14 107 -51 121 -98 16 -54 5 -101 -36 -148 -39 -46
-42 -59 -19 -92 15 -21 22 -23 74 -18 68 8 119 -5 160 -40 58 -48 77 -116 55
-190 -8 -26 -15 -58 -15 -70 l0 -23 -1470 0 c-1457 0 -1470 0 -1490 -20 -19
-19 -20 -33 -20 -328 0 -262 2 -311 16 -330 l15 -22 6800 0 c6786 0 6799 0
6819 20 19 19 20 33 20 330 0 297 -1 311 -20 330 -20 20 -33 20 -1084 20
l-1064 0 -16 48 c-49 150 -16 334 82 451 28 33 29 33 58 18 46 -24 75 -5 96
62 10 30 28 65 40 79 61 65 160 80 237 37 23 -14 53 -25 65 -25 28 0 56 29 56
58 0 28 36 52 78 52 45 0 104 -56 150 -145 37 -71 53 -82 96 -71 17 4 31 24
50 68 66 151 124 208 214 208 55 0 67 -7 120 -74 15 -18 45 -21 73 -6 15 9 19
22 19 62 0 37 6 61 22 84 63 91 173 92 306 3 l61 -41 54 22 c76 32 119 23 174
-37 50 -53 87 -56 113 -10 14 25 13 30 -6 65 -48 83 -171 133 -273 111 -51
-11 -55 -10 -128 28 -72 36 -81 38 -168 38 -85 0 -95 -2 -141 -30 -27 -17 -62
-49 -79 -73 -23 -31 -35 -40 -50 -36 -45 13 -133 15 -172 5 -68 -19 -143 -85
-200 -177 -10 -18 -15 -15 -57 32 -54 61 -110 87 -183 86 -55 -1 -102 -20
-140 -54 -20 -19 -26 -19 -90 -8 -130 23 -243 -23 -310 -127 -18 -29 -40 -53
-47 -53 -8 0 -21 -3 -30 -6 -11 -4 -17 4 -22 33 -31 168 -179 270 -336 233
-48 -12 -53 -12 -63 6 -23 42 -102 110 -141 122 -113 34 -232 -16 -285 -120
-19 -38 -20 -38 -82 -38 -116 0 -217 -72 -279 -198 -28 -56 -33 -78 -36 -158
-4 -89 -5 -93 -29 -99 -40 -10 -125 -68 -167 -115 -65 -73 -117 -219 -100
-287 l6 -23 -552 0 c-341 0 -549 4 -545 9 3 6 29 23 58 40 122 70 249 209 317
346 149 305 119 701 -81 1049 -27 49 -48 91 -45 93 3 3 45 8 94 11 116 6 173
-12 245 -78 65 -60 114 -141 138 -228 20 -70 38 -92 74 -92 26 0 41 18 74 83
13 26 40 61 58 78 32 28 38 29 92 23 62 -7 76 1 85 46 8 45 17 58 47 70 23 10
35 10 58 0 36 -15 81 -10 92 10 4 8 11 36 14 62 16 125 139 188 252 130 55
-29 58 -28 96 12 59 62 112 54 204 -29 74 -67 104 -71 132 -18 6 12 11 46 11
75 0 61 21 148 45 184 23 36 74 64 117 64 29 0 45 -8 72 -35 40 -40 55 -43 85
-17 16 12 24 35 30 78 11 74 31 115 65 133 22 12 31 12 65 -4 l40 -18 51 33
c100 64 202 47 255 -43 14 -24 25 -53 25 -64 0 -39 33 -55 93 -48 88 11 144
-25 162 -103 10 -46 45 -67 86 -53 133 46 261 -35 364 -230 19 -37 42 -70 51
-73 48 -18 78 6 88 73 9 61 54 121 116 155 48 26 59 28 126 23 89 -7 94 -3
125 90 14 44 34 80 56 102 31 31 37 33 81 27 35 -4 53 -2 70 10 22 15 23 21
17 78 -11 105 35 182 125 206 58 16 113 -2 170 -56 54 -50 90 -57 114 -22 14
20 16 212 16 1853 0 1570 -2 1834 -14 1857 -8 16 -209 287 -447 603 l-433 576
-35 -3 c-33 -3 -52 -25 -423 -508 -214 -278 -416 -540 -448 -583 l-60 -79 0
-1839 c0 -1011 -2 -1839 -5 -1839 -3 0 -24 9 -47 21 -22 11 -65 23 -94 26
l-54 6 0 2637 c0 2542 -1 2637 -18 2653 -15 14 -42 17 -160 17 l-142 0 0 98
c0 58 -5 107 -13 122 -16 31 -61 39 -88 14 -16 -15 -19 -31 -19 -126 l0 -108
-105 0 -105 0 0 103 c0 118 -12 147 -60 147 -48 0 -60 -29 -60 -147 l0 -103
-145 0 c-190 0 -185 4 -185 -159 l0 -120 -143 -3 c-103 -2 -149 -7 -160 -17
-16 -12 -17 -114 -17 -1267 l0 -1254 -135 0 -134 0 -3 343 c-2 274 -6 347 -17
360 -12 15 -60 17 -501 17 -459 0 -488 -1 -503 -18 -14 -15 -17 -42 -17 -160
l0 -142 -298 2 -297 3 -1 310 c-3 546 -2 532 -20 549 -12 13 -39 16 -130 16
l-114 0 0 273 c0 250 -2 275 -18 290 -13 12 -43 17 -117 19 l-100 3 -5 211
c-6 240 8 203 -126 344 -39 41 -121 129 -182 195 l-111 120 -1 235 c0 170 -3
239 -12 248 -16 16 -70 16 -86 0 -9 -9 -12 -77 -12 -243 l0 -231 -132 -130
c-73 -71 -180 -175 -236 -230 l-104 -100 -1 -209 -2 -210 -75 -3 c-116 -5
-110 13 -110 -309 l0 -273 -110 0 c-97 0 -112 -2 -130 -20 -20 -20 -20 -33
-20 -685 l0 -665 -150 0 -150 0 0 273 c0 324 2 317 -90 317 -95 0 -90 -11 -90
179 0 186 -7 211 -59 211 -55 0 -60 -19 -63 -211 l-3 -174 -119 -2 c-65 -1
-125 1 -132 4 -11 4 -14 41 -14 178 0 187 -5 205 -54 205 -50 0 -56 -22 -56
-207 0 -147 -2 -172 -16 -177 -9 -3 -51 -6 -93 -6 -63 0 -81 -4 -94 -18 -16
-17 -17 -84 -17 -755 l0 -737 -150 0 -150 0 0 1043 c0 999 -1 1045 -18 1060
-16 14 -45 17 -190 17 l-172 0 0 623 c0 592 -1 625 -18 640 -17 15 -77 17
-655 17 -564 0 -637 -2 -651 -16 -14 -14 -16 -86 -16 -645 l0 -629 -174 0
c-151 0 -177 -2 -195 -17 -21 -18 -21 -19 -24 -693 l-2 -675 -290 0 -290 0 -5
908 c-4 792 -7 909 -20 917 -8 5 -113 10 -232 10 l-218 0 0 979 0 980 -26 20
c-23 18 -41 21 -130 21 l-104 0 0 178 c0 97 -4 182 -8 188 -21 32 -53 34 -454
33 -222 0 -410 -3 -418 -6z m762 -299 c4 -226 -5 -214 150 -214 l108 0 0 -974
c0 -913 1 -975 18 -995 16 -20 27 -21 237 -23 l220 -3 5 -908 c4 -792 7 -909
20 -917 9 -6 155 -10 348 -10 l332 0 0 -705 0 -705 -1041 0 c-698 0 -1047 -3
-1060 -10 -18 -10 -19 -27 -19 -551 0 -469 -2 -544 -16 -570 -8 -17 -18 -29
-22 -27 -4 3 -26 13 -49 24 -34 15 -43 25 -48 54 -15 76 -55 118 -133 139 -25
7 -42 18 -42 26 0 25 -69 93 -106 105 -19 6 -51 10 -71 8 l-38 -3 0 2010 0
2010 113 5 c85 4 115 9 122 20 6 9 10 396 10 993 l0 977 115 0 c110 0 117 1
140 25 25 24 25 26 25 215 l0 190 339 0 340 0 3 -186z m10216 -3555 c2 -2123
0 -2619 -11 -2627 -8 -7 -26 -8 -48 -3 -84 19 -182 -38 -215 -125 l-16 -41
-76 0 c-87 1 -134 -18 -189 -75 -34 -36 -83 -131 -83 -163 -1 -43 -13 -47 -71
-20 -72 33 -139 33 -197 0 -40 -23 -47 -24 -94 -14 -48 11 -122 7 -175 -7
l-23 -6 0 2706 0 2706 143 0 c108 0 148 4 163 14 17 13 19 29 22 145 l4 131
431 -2 432 -3 3 -2616z m-4152 2488 c22 -23 80 -86 129 -140 50 -54 92 -103
93 -108 2 -5 -111 -9 -282 -9 -157 0 -286 3 -286 7 0 8 292 292 301 292 4 1
24 -18 45 -42z m-3016 -887 l0 -590 -555 0 -555 0 0 583 c0 321 3 587 7 590 3
4 253 7 555 7 l548 0 0 -590z m3334 493 c9 -22 6 -297 -3 -311 -5 -9 -104 -12
-387 -10 l-379 3 -3 168 -2 167 384 0 c349 0 384 -2 390 -17z m5516 -600 c201
-267 366 -493 368 -502 2 -11 -51 -66 -145 -151 -81 -74 -218 -201 -306 -282
l-158 -148 -162 0 -163 0 -339 280 c-242 199 -341 286 -343 302 -2 17 46 86
175 254 98 126 263 341 368 477 104 136 193 247 197 247 4 0 8 -120 8 -267 0
-234 2 -269 17 -285 18 -20 45 -23 74 -8 18 10 19 24 19 290 0 218 3 280 13
280 6 -1 176 -219 377 -487z m-5280 -68 l0 -235 -161 0 -160 0 20 26 c19 24
21 40 21 145 0 94 -3 121 -16 133 -20 21 -53 20 -76 -1 -15 -14 -18 -32 -18
-133 0 -104 2 -120 21 -144 l20 -26 -420 0 -421 0 0 235 0 235 595 0 595 0 0
-235z m270 -2141 l0 -1785 -22 7 c-13 3 -57 23 -98 44 -314 157 -660 262
-1000 305 -143 18 -552 39 -581 30 -19 -6 -19 23 -19 1589 l0 1596 860 0 860
0 0 -1786z m-3460 -146 l0 -1773 -73 -56 c-156 -122 -324 -299 -429 -452 l-39
-58 -39 34 c-46 42 -100 56 -255 64 -134 7 -162 -4 -249 -97 l-56 -62 -34 30
c-46 40 -97 56 -160 49 l-51 -6 -35 62 c-40 71 -149 186 -200 212 -22 11 -57
18 -92 18 -47 0 -67 -5 -108 -31 l-50 -31 0 1924 0 1925 783 0 c487 0 788 4
797 10 8 5 77 10 153 10 l137 0 0 -1772z m7529 1428 l291 -240 0 -1698 c0
-934 -1 -1698 -3 -1698 -2 0 -26 20 -53 45 -72 67 -139 97 -234 104 -76 6 -79
7 -102 41 -32 48 -109 97 -163 106 l-45 6 0 1790 c0 1119 4 1788 9 1786 6 -1
141 -111 300 -242z m1311 -1417 c0 -1569 -1 -1651 -17 -1644 -78 32 -182 32
-248 0 -84 -41 -145 -128 -160 -228 -6 -38 -11 -46 -33 -51 -15 -3 -37 -8 -49
-12 l-23 -6 0 1560 0 1560 258 236 c141 130 260 236 265 236 4 0 7 -743 7
-1651z m-3750 1018 c5 -330 6 -349 24 -363 15 -11 59 -14 193 -14 l173 0 0
-600 0 -600 -678 0 c-643 0 -680 -1 -695 -18 -15 -16 -17 -64 -19 -428 l-3
-409 -255 0 -255 0 0 1225 0 1225 342 5 c261 4 345 8 355 18 9 9 14 57 16 163
l3 149 397 -2 397 -3 5 -348z m-3890 -147 c0 -267 1 -281 20 -300 19 -19 33
-20 210 -20 l190 0 0 -909 0 -908 -82 -7 c-368 -30 -629 -82 -896 -177 -46
-16 -87 -29 -93 -29 -5 0 -9 493 -9 1315 l0 1315 330 0 330 0 0 -280z m6990
-1304 c0 -1129 3 -1592 11 -1615 6 -17 8 -42 5 -55 -5 -21 -13 -24 -71 -28
-43 -4 -84 -15 -122 -34 -32 -16 -61 -30 -65 -32 -10 -4 -11 3332 -1 3341 3 4
60 7 125 7 l118 0 0 -1584z m-7770 -519 l0 -583 -47 -23 c-27 -12 -91 -47
-144 -77 -52 -30 -98 -54 -102 -54 -4 0 -7 297 -7 660 l0 660 150 0 150 0 0
-583z m5060 -556 c0 -813 0 -829 -20 -875 -19 -42 -24 -46 -55 -46 -52 0 -84
-16 -136 -70 -35 -36 -56 -50 -76 -50 -29 0 -82 -27 -122 -64 -22 -20 -24 -20
-35 -2 -87 142 -165 218 -266 258 -80 32 -255 33 -319 1 l-44 -22 -21 27 c-11
15 -58 66 -103 114 l-83 86 0 736 0 736 640 0 640 0 0 -829z m-7642 342 l172
-6 0 -124 0 -123 -1002 2 -1003 3 -3 114 c-1 63 0 121 2 128 4 11 160 13 833
13 455 0 906 -3 1001 -7z m4292 -223 c346 -26 646 -95 955 -222 577 -238 1033
-557 1274 -895 64 -89 146 -241 136 -251 -22 -22 -540 -8 -607 17 -12 4 -27
27 -38 57 -10 27 -55 136 -101 242 -68 159 -80 195 -68 203 27 17 41 4 93 -90
29 -52 60 -99 69 -105 24 -15 70 5 81 35 8 22 -1 44 -56 145 -84 153 -86 154
-213 129 -54 -10 -104 -26 -112 -34 -21 -21 -12 -73 30 -167 98 -223 160 -375
154 -381 -7 -7 -230 36 -249 49 -10 5 -7 12 10 23 32 23 28 51 -29 188 -85
202 -139 337 -139 345 0 4 14 13 30 19 23 9 30 17 30 39 0 72 -95 101 -151 45
-44 -44 -40 -95 17 -234 25 -62 71 -173 101 -247 30 -74 60 -141 65 -147 17
-21 -3 -17 -294 53 -350 84 -581 123 -773 132 -140 7 -362 0 -412 -13 -19 -4
-24 1 -33 34 -15 58 -59 91 -121 91 -28 0 -63 -7 -79 -15 -26 -14 -31 -13 -75
11 -64 36 -145 31 -201 -11 -36 -27 -46 -30 -121 -30 -67 0 -86 -4 -110 -21
-22 -16 -34 -19 -53 -12 -36 13 -116 12 -151 -2 -26 -11 -32 -10 -52 8 -30 28
-89 52 -129 52 -47 -1 -108 -31 -144 -71 l-30 -35 -59 28 c-104 49 -201 34
-261 -40 l-21 -26 -27 22 c-58 45 -128 51 -168 15 -16 -14 -22 -14 -67 6 -83
36 -165 24 -218 -31 -77 -82 -59 -198 31 -198 36 0 63 42 48 74 -8 18 -7 28 2
42 20 27 68 21 117 -14 55 -41 88 -41 129 -1 l31 31 54 -51 c39 -37 62 -51 82
-51 38 0 47 8 73 62 27 59 43 72 84 71 64 -2 176 -81 176 -123 0 -37 65 -53
95 -23 17 16 17 49 0 113 -10 40 27 80 74 80 39 0 63 -18 85 -62 6 -13 23 -27
37 -32 22 -8 33 -4 68 24 40 33 42 33 92 22 81 -19 123 -15 157 13 36 30 49
31 105 4 56 -28 88 -20 116 26 28 49 62 63 96 41 28 -18 53 -62 41 -73 -3 -4
-52 -16 -109 -28 -235 -51 -456 -103 -867 -207 -537 -136 -600 -148 -812 -155
-153 -5 -168 -4 -174 12 -4 9 -3 29 2 44 7 20 17 27 45 29 23 2 40 -2 49 -12
18 -23 77 -21 90 3 18 34 11 58 -24 89 -41 36 -82 46 -144 37 -61 -9 -116 -62
-133 -128 -8 -35 -16 -47 -30 -47 -25 0 -127 39 -135 51 -13 22 96 254 183
389 113 173 288 368 443 493 327 262 746 437 1230 512 267 42 626 56 910 35z
m-4125 -449 l0 -304 -43 -12 c-54 -17 -103 -53 -126 -97 l-18 -34 -87 1 c-47
0 -96 -4 -107 -8 -19 -7 -25 -1 -44 37 -12 25 -37 59 -56 75 -34 30 -34 30
-25 91 15 116 -13 200 -85 249 -37 26 -107 44 -134 36 -11 -3 -34 5 -56 20
-21 14 -48 28 -61 31 -44 11 -112 -3 -147 -30 -21 -16 -37 -22 -41 -16 -12 20
-84 50 -118 50 -19 0 -58 -12 -87 -28 -70 -36 -113 -98 -136 -197 -10 -41 -22
-75 -27 -75 -5 0 -20 9 -34 20 -57 44 -156 49 -207 9 -22 -17 -30 -18 -69 -8
-53 13 -106 1 -161 -36 -27 -18 -50 -25 -86 -25 l-50 0 0 280 0 280 1003 -2
1002 -3 0 -304z m6083 52 c2 -183 -1 -253 -9 -253 -6 0 -51 29 -100 65 -104
77 -224 154 -331 215 l-78 44 0 86 c0 48 3 90 7 94 4 3 119 5 257 4 l251 -3 3
-252z m-2303 -674 c0 -8 -12 -15 -27 -17 -32 -4 -36 5 -10 24 20 16 37 13 37
-7z m720 -109 c171 -19 328 -52 770 -160 543 -133 783 -168 1070 -156 88 3
168 7 179 9 14 1 22 -9 32 -43 11 -37 36 -222 31 -226 -162 -141 -247 -176
-427 -176 -187 1 -350 48 -865 252 -560 222 -826 297 -1159 329 -149 15 -252
14 -382 -4 -192 -25 -234 -36 -609 -150 -521 -159 -930 -264 -1135 -292 -121
-16 -250 -13 -337 8 -90 21 -194 78 -255 140 -57 56 -77 98 -40 84 127 -49
338 -72 514 -56 187 17 287 36 608 118 543 138 874 216 1180 277 153 31 233
43 405 60 62 6 309 -2 420 -14z m-170 -314 c280 -54 482 -120 1065 -351 377
-150 527 -192 710 -202 154 -8 255 11 373 71 l87 44 0 -31 c0 -45 -52 -187
-91 -253 -108 -178 -286 -297 -523 -351 -103 -23 -125 -25 -296 -20 -254 6
-346 26 -830 180 -462 148 -583 172 -855 171 -265 -1 -373 -24 -900 -199 -408
-135 -582 -170 -850 -169 -174 1 -198 3 -290 28 -324 87 -562 296 -634 556
-22 79 -30 281 -12 309 8 12 22 3 70 -42 66 -61 170 -117 266 -143 103 -28
310 -30 472 -4 227 36 612 137 1103 290 266 83 428 125 533 140 34 5 152 7
262 6 166 -3 224 -8 340 -30z m3979 -226 c26 -29 36 -49 36 -73 0 -75 54 -98
122 -51 101 70 237 16 255 -103 3 -21 14 -48 25 -59 19 -21 19 -22 -22 -84
-60 -95 -90 -199 -90 -319 0 -58 6 -118 15 -147 8 -27 15 -50 15 -51 0 -2
-279 -3 -621 -3 l-621 0 7 33 c19 98 30 130 60 172 44 63 115 111 181 125 68
14 92 43 75 91 -6 18 -11 62 -11 99 0 55 5 78 28 121 49 94 147 148 216 119
86 -35 120 -19 129 58 7 65 58 112 121 112 38 0 48 -5 80 -40z m-4022 -659
c53 -11 141 -31 195 -46 130 -34 545 -166 558 -177 5 -4 -466 -8 -1045 -8
-602 0 -1049 4 -1040 9 28 17 505 170 610 196 183 46 260 55 450 50 120 -3
206 -10 272 -24z m6331 -351 l217 0 0 -45 0 -45 -6715 0 -6715 0 0 44 c0 24 4
46 10 48 5 2 2929 2 6497 1 3569 -2 6586 -3 6706 -3z m217 -335 l0 -135 -6383
0 c-3511 0 -6533 3 -6715 7 l-332 6 0 129 0 128 6715 0 6715 0 0 -135z" />
    <path
      d="M1067 8572 c-15 -16 -17 -43 -17 -190 0 -160 1 -173 21 -193 23 -23
54 -19 82 13 15 17 17 42 17 177 0 105 -4 164 -13 181 -16 32 -66 39 -90 12z" />
    <path
      d="M622 8554 c-21 -14 -22 -21 -22 -168 0 -135 2 -155 18 -169 22 -20
52 -22 75 -4 14 10 16 34 17 157 1 80 1 150 0 157 0 18 -29 43 -48 43 -10 0
-28 -7 -40 -16z" />
    <path
      d="M870 8553 c-35 -12 -40 -35 -40 -178 0 -125 2 -144 18 -158 26 -24
68 -21 86 5 13 18 16 51 16 156 0 128 -1 134 -25 157 -25 26 -29 27 -55 18z" />
    <path
      d="M318 6489 c-16 -9 -18 -29 -18 -179 0 -157 1 -170 19 -180 29 -15 56
-12 74 8 14 16 17 43 17 174 0 137 -2 157 -18 171 -21 19 -49 21 -74 6z" />
    <path
      d="M768 6489 c-16 -9 -18 -29 -18 -182 0 -186 3 -197 50 -197 54 0 60
21 60 197 0 142 -2 162 -18 176 -21 19 -49 21 -74 6z" />
    <path
      d="M547 6472 c-14 -16 -17 -43 -17 -169 0 -133 2 -152 18 -166 24 -22
55 -21 75 1 14 16 17 43 17 169 0 133 -2 152 -18 166 -24 22 -55 21 -75 -1z" />
    <path
      d="M546 5954 c-13 -13 -16 -45 -16 -189 0 -188 5 -205 55 -205 50 0 55
17 55 205 0 188 -5 205 -55 205 -13 0 -31 -7 -39 -16z" />
    <path
      d="M318 5929 c-16 -9 -18 -29 -18 -177 0 -180 3 -192 50 -192 53 0 60
21 60 192 0 137 -2 157 -18 171 -21 19 -49 21 -74 6z" />
    <path
      d="M2136 4524 c-13 -13 -16 -45 -16 -194 l0 -180 25 -16 c33 -21 73 -11
85 22 6 14 10 96 10 182 0 126 -3 162 -16 180 -18 26 -65 30 -88 6z" />
    <path
      d="M2326 4524 c-13 -13 -16 -44 -16 -183 0 -150 2 -170 18 -184 23 -21
56 -22 76 -1 13 13 16 44 16 188 0 120 -4 176 -12 184 -17 17 -64 15 -82 -4z" />
    <path
      d="M10568 7509 c-16 -9 -18 -27 -18 -143 0 -116 2 -135 18 -149 23 -21
41 -21 70 -1 21 14 22 22 22 144 0 104 -3 132 -16 144 -18 18 -51 20 -76 5z" />
    <path
      d="M10737 7492 c-14 -15 -17 -40 -17 -128 0 -119 6 -134 51 -134 50 0
59 20 59 139 0 92 -3 110 -18 124 -24 22 -55 21 -75 -1z" />
    <path
      d="M10880 7490 c-18 -18 -20 -33 -20 -143 0 -138 10 -167 59 -167 52 0
61 23 61 161 0 97 -4 130 -16 147 -19 28 -57 29 -84 2z" />
    <path
      d="M10848 6109 c-16 -9 -18 -28 -18 -168 0 -172 4 -183 55 -183 51 0 55
12 55 174 0 84 -5 158 -10 169 -12 21 -53 25 -82 8z" />
    <path
      d="M11008 6099 c-16 -9 -18 -29 -18 -182 0 -186 3 -197 51 -197 51 0 59
27 59 201 0 138 -2 158 -18 172 -21 19 -49 21 -74 6z" />
    <path
      d="M10876 5448 c-13 -18 -16 -55 -16 -198 0 -195 7 -220 59 -220 56 0
61 18 61 216 0 201 -6 224 -60 224 -18 0 -34 -8 -44 -22z" />
    <path
      d="M10656 5414 c-18 -17 -18 -39 -7 -251 5 -108 10 -135 25 -152 24 -26
47 -27 77 -2 l22 18 -10 187 c-7 117 -16 192 -23 201 -16 20 -64 19 -84 -1z" />
    <path
      d="M10915 4796 c-14 -21 -16 -55 -13 -221 3 -181 5 -198 22 -211 11 -8
27 -14 36 -14 9 0 25 6 36 14 17 13 19 30 22 211 4 222 -2 245 -58 245 -20 0
-35 -8 -45 -24z" />
    <path
      d="M10666 4774 c-13 -13 -16 -46 -16 -203 0 -169 2 -190 18 -204 24 -22
55 -21 75 1 15 16 17 46 17 205 0 201 -4 217 -55 217 -13 0 -31 -7 -39 -16z" />
    <path
      d="M3443 7590 c-30 -12 -34 -35 -31 -180 3 -123 3 -124 29 -139 24 -13
29 -13 53 2 26 17 26 18 26 157 0 132 -1 140 -22 154 -25 18 -25 18 -55 6z" />
    <path
      d="M3616 7558 c-13 -18 -16 -50 -16 -148 0 -145 9 -173 57 -178 53 -5
63 21 63 173 0 148 -9 175 -60 175 -18 0 -34 -8 -44 -22z" />
    <path
      d="M7426 7065 c-13 -13 -16 -39 -16 -134 0 -102 3 -120 18 -134 23 -21
52 -22 78 -3 17 13 19 28 21 123 2 128 -7 157 -53 161 -19 2 -38 -3 -48 -13z" />
    <path
      d="M6752 6354 c-21 -14 -22 -22 -22 -163 0 -131 2 -150 18 -164 23 -21
56 -22 76 -1 13 13 16 42 16 163 0 131 -2 150 -18 164 -23 21 -41 21 -70 1z" />
    <path
      d="M7901 6344 c-19 -24 -21 -40 -21 -150 0 -67 4 -134 10 -148 12 -33
52 -43 85 -22 25 16 25 18 25 161 0 132 -2 147 -20 165 -27 27 -55 25 -79 -6z" />
    <path
      d="M7692 6328 c-8 -8 -12 -56 -12 -149 0 -148 7 -169 54 -169 47 0 56
26 56 164 0 70 -5 136 -10 147 -12 22 -68 27 -88 7z" />
    <path
      d="M7528 6319 c-16 -9 -18 -28 -18 -158 0 -161 4 -173 55 -173 51 0 55
13 55 168 0 116 -3 145 -16 158 -18 18 -51 20 -76 5z" />
    <path
      d="M6785 5215 c-24 -23 -25 -29 -25 -162 0 -158 9 -186 56 -191 58 -6
64 11 64 184 0 141 -2 156 -20 174 -26 26 -46 25 -75 -5z" />
    <path
      d="M6977 5192 c-14 -16 -17 -41 -17 -165 0 -134 2 -149 20 -167 26 -26
52 -25 76 1 16 18 19 40 22 158 3 156 -5 184 -54 189 -20 2 -36 -4 -47 -16z" />
    <path
      d="M7202 5164 c-21 -14 -22 -21 -22 -164 l0 -150 26 -17 c24 -15 29 -15
53 -2 l26 15 3 149 c3 143 2 151 -19 168 -26 21 -38 21 -67 1z" />
    <path
      d="M7227 4332 c-14 -15 -17 -42 -17 -151 0 -73 5 -141 10 -152 12 -22
68 -27 88 -7 8 8 12 57 12 154 0 116 -3 145 -16 158 -21 21 -57 20 -77 -2z" />
    <path
      d="M6782 4317 c-19 -22 -25 -92 -17 -203 6 -84 11 -110 26 -125 24 -24
54 -24 78 0 17 17 19 31 14 167 -4 120 -8 151 -21 162 -21 16 -67 16 -80 -1z" />
    <path
      d="M7031 4294 c-18 -22 -21 -40 -20 -108 0 -103 12 -176 30 -187 20 -13
63 -11 77 3 8 8 12 55 12 145 0 120 -2 135 -20 153 -27 27 -55 25 -79 -6z" />
    <path
      d="M3492 6184 c-21 -14 -22 -21 -22 -168 0 -135 2 -155 18 -169 26 -24
68 -21 86 5 13 18 16 52 16 159 0 123 -2 139 -21 163 -23 30 -45 33 -77 10z" />
    <path
      d="M3089 6177 c-31 -16 -37 -42 -38 -164 -1 -134 13 -172 65 -173 46 0
54 26 54 177 0 101 -4 143 -12 150 -24 18 -45 21 -69 10z" />
    <path
      d="M3299 6171 c-24 -19 -24 -23 -24 -181 0 -158 0 -162 24 -181 26 -21
58 -18 79 9 8 11 12 62 12 172 0 110 -4 161 -12 172 -21 27 -53 30 -79 9z" />
    <path
      d="M3294 5459 c-16 -18 -20 -40 -22 -137 -4 -137 7 -189 43 -198 16 -4
35 0 50 10 25 16 25 18 25 166 0 143 -1 150 -22 164 -30 22 -51 20 -74 -5z" />
    <path
      d="M3082 5458 c-8 -8 -12 -58 -12 -158 0 -130 2 -149 18 -163 23 -21 41
-21 70 -1 21 14 22 22 22 159 0 117 -3 146 -16 159 -18 19 -65 21 -82 4z" />
    <path
      d="M4429 5281 c-24 -19 -24 -22 -24 -199 0 -196 4 -212 56 -212 55 0 59
13 59 214 0 164 -2 185 -18 199 -24 22 -44 21 -73 -2z" />
    <path
      d="M4230 5270 c-18 -18 -20 -33 -20 -190 0 -157 2 -172 20 -190 11 -11
29 -20 40 -20 11 0 29 9 40 20 18 18 20 33 20 184 0 150 -2 165 -21 190 -24
31 -52 33 -79 6z" />
    <path
      d="M4046 5254 c-14 -14 -16 -43 -14 -207 l3 -191 26 -15 c24 -13 29 -13
53 2 l26 17 0 193 c0 137 -3 196 -12 205 -17 17 -64 15 -82 -4z" />
    <path
      d="M3291 4934 c-19 -24 -21 -40 -21 -158 0 -151 9 -179 56 -184 58 -6
64 11 64 179 0 136 -2 151 -20 169 -27 27 -55 25 -79 -6z" />
    <path
      d="M3086 4904 c-13 -13 -16 -43 -16 -168 0 -164 4 -176 51 -176 53 0 59
17 59 179 0 131 -2 150 -18 164 -23 21 -56 22 -76 1z" />
    <path
      d="M12060 5550 c-18 -18 -20 -33 -20 -158 0 -154 9 -182 59 -182 54 0
61 22 61 178 0 129 -2 144 -20 162 -11 11 -29 20 -40 20 -11 0 -29 -9 -40 -20z" />
    <path
      d="M12260 5552 c-45 -15 -50 -30 -50 -161 0 -143 10 -171 59 -171 53 0
61 23 61 166 0 71 -4 134 -8 140 -11 17 -46 32 -62 26z" />
    <path
      d="M12376 5524 c-13 -12 -16 -41 -16 -153 0 -151 4 -161 56 -161 54 0
64 25 64 165 0 93 -4 126 -16 143 -18 26 -65 30 -88 6z" />
    <path
      d="M12266 4684 c-13 -13 -16 -44 -16 -178 0 -145 2 -165 18 -179 25 -23
58 -21 82 3 18 18 20 33 20 173 0 122 -3 157 -16 175 -18 26 -65 30 -88 6z" />
    <path
      d="M12422 4688 c-8 -8 -12 -57 -12 -169 0 -169 6 -189 53 -189 55 1 67
34 67 187 0 151 -9 177 -60 181 -19 2 -41 -3 -48 -10z" />
    <path
      d="M12107 4672 c-14 -16 -17 -43 -17 -169 0 -133 2 -152 18 -166 26 -24
68 -21 86 5 13 18 16 52 16 163 0 111 -3 145 -16 163 -19 27 -64 29 -87 4z" />
    <path
      d="M13396 4574 c-13 -13 -16 -42 -16 -165 0 -136 2 -151 20 -169 32 -32
66 -25 89 17 18 35 15 283 -5 311 -18 26 -65 30 -88 6z" />
    <path
      d="M13210 4521 c-5 -11 -10 -74 -10 -140 0 -117 1 -121 24 -137 22 -13
29 -14 53 -2 l28 13 3 129 c2 86 -1 133 -9 142 -18 21 -76 18 -89 -5z" />
    <path
      d="M9580 5793 c-36 -13 -40 -34 -40 -213 0 -196 6 -220 60 -220 53 0 60
24 60 212 0 157 -9 218 -31 218 -4 0 -13 2 -21 4 -7 3 -20 2 -28 -1z" />
    <path
      d="M9337 5758 c-11 -18 -13 -59 -8 -192 l6 -169 27 -20 c23 -17 31 -19
53 -9 35 16 52 55 37 87 -7 15 -11 77 -11 151 0 98 -3 131 -16 150 -21 32 -69
33 -88 2z" />
    <path
      d="M8757 4812 c-14 -15 -17 -42 -17 -160 0 -154 6 -172 59 -172 47 0 51
13 51 171 0 121 -3 150 -16 163 -21 21 -57 20 -77 -2z" />
    <path
      d="M8536 4798 c-13 -17 -16 -51 -16 -148 0 -142 10 -170 60 -170 50 0
60 28 60 170 0 142 -10 170 -60 170 -18 0 -34 -8 -44 -22z" />
    <path
      d="M5702 4924 c-21 -14 -22 -22 -22 -155 0 -126 2 -141 20 -159 27 -27
46 -25 76 5 25 25 25 27 22 161 -3 121 -5 137 -22 150 -25 18 -46 18 -74 -2z" />
    <path
      d="M5517 4912 c-24 -26 -25 -256 -1 -290 17 -25 51 -29 80 -8 17 13 19
29 22 138 3 142 -6 171 -54 176 -20 2 -36 -4 -47 -16z" />
    <path
      d="M5894 4907 c-10 -6 -22 -15 -26 -21 -4 -6 -8 -74 -8 -152 0 -124 2
-143 18 -157 23 -21 65 -22 82 -2 15 18 14 303 -1 321 -15 18 -44 23 -65 11z" />
    <path
      d="M5535 4348 c-32 -18 -35 -28 -35 -124 0 -101 11 -126 54 -126 50 0
61 22 61 128 0 89 -2 97 -24 115 -27 22 -29 22 -56 7z" />
    <path
      d="M5523 3835 c-22 -15 -23 -23 -23 -138 0 -95 4 -128 16 -145 17 -25
51 -29 80 -8 17 13 19 29 22 133 3 131 -7 166 -48 171 -14 1 -35 -4 -47 -13z" />
    <path
      d="M9397 3642 c-14 -15 -17 -42 -17 -160 0 -134 1 -142 22 -156 30 -21
50 -20 83 5 23 19 26 26 20 58 -4 20 -9 81 -12 136 -5 107 -17 135 -58 135
-12 0 -29 -8 -38 -18z" />
    <path
      d="M9574 3635 c-13 -20 -15 -46 -13 -138 4 -125 13 -147 60 -147 53 0
59 17 53 158 -5 98 -10 130 -22 140 -26 20 -60 14 -78 -13z" />
    <path
      d="M9196 3618 c-12 -16 -16 -47 -16 -113 0 -95 11 -153 32 -167 22 -13
54 -9 71 10 22 24 22 235 1 270 -19 30 -67 30 -88 0z" />
    <path
      d="M7213 2560 c-63 -15 -123 -76 -161 -163 -7 -15 -12 -36 -12 -46 0
-27 34 -53 66 -49 23 2 34 14 59 61 50 96 119 116 149 42 19 -44 58 -56 89
-27 74 69 166 44 253 -69 37 -48 51 -59 74 -59 21 0 35 8 47 26 16 25 16 28
-3 62 -32 59 -111 139 -166 166 -56 28 -143 35 -194 16 -21 -8 -31 -7 -45 6
-20 18 -85 43 -109 43 -8 -1 -30 -5 -47 -9z" />
    <path
      d="M8773 2368 c-6 -7 -13 -20 -15 -28 -7 -19 99 -329 120 -352 30 -35
92 -9 92 38 0 32 -98 315 -116 335 -19 22 -67 25 -81 7z" />
    <path
      d="M8900 1639 c-31 -20 -56 -29 -85 -29 -65 0 -95 -48 -61 -96 21 -28
117 -25 180 7 81 40 106 89 66 129 -26 26 -46 24 -100 -11z" />
    <path
      d="M5845 1295 c-83 -34 -100 -59 -69 -103 10 -14 25 -22 45 -22 35 0
149 45 161 63 13 20 9 54 -8 71 -22 22 -59 20 -129 -9z" />
    <path
      d="M7493 1284 c-26 -41 -3 -72 71 -96 71 -23 97 -21 112 11 18 35 3 63
-46 89 -62 31 -115 30 -137 -4z" />
    <path
      d="M5324 1175 c-10 -8 -40 -22 -67 -31 -52 -17 -72 -43 -63 -80 11 -42
46 -50 113 -25 78 29 116 60 116 94 0 15 -6 34 -13 42 -16 19 -60 19 -86 0z" />
    <path
      d="M7881 1141 c-37 -37 -28 -67 32 -105 71 -45 93 -51 122 -32 27 18 33
53 13 78 -17 21 -90 66 -121 73 -18 5 -31 1 -46 -14z" />
    <path
      d="M8157 972 c-31 -34 -21 -58 45 -112 67 -53 95 -61 121 -32 25 28 21
65 -10 94 -75 68 -125 84 -156 50z" />
  </g>
</svg>