<?xml version="1.0" encoding="iso-8859-1"?>
<!-- Uploaded to: SVG Repo, www.svgrepo.com, Transformed by: SVG Repo Mixer Tools -->
<svg height="800px" width="800px" version="1.1" id="Layer_1" xmlns="http://www.w3.org/2000/svg"
	xmlns:xlink="http://www.w3.org/1999/xlink"
	viewBox="0 0 512 512" xml:space="preserve">
<g>
	<polygon style="fill:#db4644;" points="209.965,257.046 209.965,474.952 168.114,501.537 168.114,257.046 	"/>
	<polygon style="fill:#db4644;" points="342.84,257.046 342.84,501.38 300.989,474.941 300.989,257.046 	"/>
</g>
<polygon style="fill:#ECF0F1;" points="300.989,257.046 300.989,474.941 255.372,446.117 209.965,474.952 209.965,257.046 "/>
<ellipse style="fill:#373747;" cx="255.999" cy="148.998" rx="138.629" ry="138.535"/>
<path style="fill:#ECF0F1;" d="M256,245.712c-53.365,0-96.779-43.385-96.779-96.713S202.635,52.286,256,52.286
	s96.779,43.385,96.779,96.713S309.365,245.712,256,245.712z"/>
<g>
	<path style="fill:#231F20;" d="M405.092,148.998C405.092,66.84,338.21,0,256,0S106.908,66.84,106.908,148.998
		c0,44.531,19.655,84.556,50.744,111.883v240.657c0,3.817,2.079,7.331,5.425,9.169c1.571,0.864,3.306,1.293,5.038,1.293
		c1.953,0,3.903-0.546,5.611-1.632l81.662-51.865l81.866,51.723c1.703,1.076,3.643,1.618,5.588,1.618
		c1.736,0,3.475-0.431,5.049-1.299c3.339-1.84,5.412-5.351,5.412-9.163V261.799C384.998,234.455,405.092,194.029,405.092,148.998z
		 M127.833,148.998c0-70.619,57.495-128.073,128.167-128.073s128.167,57.453,128.167,128.073
		c0,70.62-57.495,128.074-128.167,128.074S127.833,219.618,127.833,148.998z M178.577,276.288
		c6.651,4.055,13.646,7.597,20.925,10.587v182.329l-20.925,13.293V276.288z M255.372,435.655c-1.948,0-3.897,0.544-5.609,1.631
		l-29.336,18.629V293.7c11.404,2.801,23.316,4.297,35.573,4.297c11.882,0,23.44-1.404,34.527-4.042v161.999l-29.565-18.682
		C259.254,436.194,257.313,435.655,255.372,435.655z M332.377,482.395l-20.925-13.219V287.303
		c7.276-2.923,14.268-6.405,20.925-10.39V482.395z"/>
	<path style="fill:#231F20;" d="M256,256.176c59.134,0,107.242-48.079,107.242-107.177S315.134,41.823,256,41.823
		S148.758,89.902,148.758,149S196.867,256.176,256,256.176z M256,62.748c47.595,0,86.316,38.692,86.316,86.252
		S303.595,235.252,256,235.252S169.684,196.56,169.684,149S208.405,62.748,256,62.748z"/>
</g>
</svg>